# xmcd CD database file generated by OrangeCD 6.0
#
# Track frame offsets:
#	150
#	15302
#	30072
#	44127
#	56164
#	69359
#	82595
#	95439
#	107725
#	119729
#	131911
#	145431
#	158924
#	173071
#	187136
#	200638
#	215541
#	233828
#	247509
#	260951
#	291106
#	303997
#	316731
#	331462
#
# Disc length: 4676 seconds
#
# Revision: 0
# Processed by: cddbd v1.5.2PL0 Copyright (c) Steve Scherf et al.
# Submitted via: OrangeCD 6.0
#
DISCID=5b124218
DTITLE=Various Artist - Blues Vol 2
DYEAR=2012
DGENRE=
TTITLE0=Blind Willie Johnson - Dark Was The Night
TTITLE1=Bessie Smith - Trombone Cholly
TTITLE2=Big Bill Broonzy - She Caught The Train
TTITLE3=Robert Johnson - Hellhound On My Trail
TTITLE4=Blind Blake - Southern Rag
TTITLE5=Blind Boy Fuller - Truckin' My Blues Away n.2
TTITLE6=Skip James - Hard Time Killin' Floor Blues
TTITLE7=Blind Lemon Jefferson - See That My Grave's Kept Clean
TTITLE8=Blind McTell - Statesboro Blues
TTITLE9=Memphis Minnie - I'm Not A Bad Gal
TTITLE10=Charley Patton - 34 Blues
TTITLE11=Ida Cox - Hard Time Blues
TTITLE12=Tampa Red - Delta Woman Blues
TTITLE13=Leadbelly - Midnight Speciaò
TTITLE14=Lonnie Johnson - Don't Be No Fool
TTITLE15=Charley Patton - Moon Going Down
TTITLE16=Reverend Gary Davis - Say No To The Devil
TTITLE17=I Believe I'll Dust My Broom
TTITLE18=Sleepy John Ester - Hobo Jungle Blues
TTITLE19=Son House - Walkin' Blues
TTITLE20=Sonny Boy Williamson II - I Been Dealing With The Devil
TTITLE21=Leroy Carr - Naptown Blues
TTITLE22=Sonny Terry and Brownie McGee - Trouble In Mind
TTITLE23=Billy Murray - Casey Jones
EXTD=
EXTT0=
EXTT1=
EXTT2=
EXTT3=
EXTT4=
EXTT5=
EXTT6=
EXTT7=
EXTT8=
EXTT9=
EXTT10=
EXTT11=
EXTT12=
EXTT13=
EXTT14=
EXTT15=
EXTT16=
EXTT17=
EXTT18=
EXTT19=
EXTT20=
EXTT21=
EXTT22=
EXTT23=
PLAYORDER=
